<svg width="32" height="32" viewBox="0 0 32 32" fill="none" xmlns="http://www.w3.org/2000/svg">
<path d="M15.9962 11.1981C13.3521 11.1981 11.1943 13.3559 11.1943 16.0001C11.1943 18.6443 13.3521 20.8021 15.9962 20.8021C18.6404 20.8021 20.7982 18.6443 20.7982 16.0001C20.7982 13.3559 18.6404 11.1981 15.9962 11.1981ZM30.3985 16.0001C30.3985 14.0116 30.4165 12.041 30.3048 10.0561C30.1932 7.75052 29.6672 5.70434 27.9813 4.0184C26.2918 2.32886 24.2492 1.80651 21.9437 1.69483C19.9552 1.58316 17.9847 1.60117 15.9998 1.60117C14.0113 1.60117 12.0408 1.58316 10.0559 1.69483C7.75041 1.80651 5.70427 2.33246 4.01836 4.0184C2.32885 5.70794 1.8065 7.75052 1.69483 10.0561C1.58316 12.0446 1.60117 14.0152 1.60117 16.0001C1.60117 17.985 1.58316 19.9592 1.69483 21.9441C1.8065 24.2497 2.33245 26.2959 4.01836 27.9818C5.70787 29.6713 7.75041 30.1937 10.0559 30.3054C12.0444 30.417 14.0149 30.399 15.9998 30.399C17.9883 30.399 19.9588 30.417 21.9437 30.3054C24.2492 30.1937 26.2954 29.6677 27.9813 27.9818C29.6708 26.2923 30.1932 24.2497 30.3048 21.9441C30.4201 19.9592 30.3985 17.9886 30.3985 16.0001V16.0001ZM15.9962 23.3887C11.9075 23.3887 8.60777 20.0889 8.60777 16.0001C8.60777 11.9113 11.9075 8.61151 15.9962 8.61151C20.0849 8.61151 23.3847 11.9113 23.3847 16.0001C23.3847 20.0889 20.0849 23.3887 15.9962 23.3887ZM23.6873 10.0345C22.7327 10.0345 21.9617 9.26355 21.9617 8.3089C21.9617 7.35426 22.7327 6.58334 23.6873 6.58334C24.6419 6.58334 25.4128 7.35426 25.4128 8.3089C25.4131 8.53559 25.3687 8.7601 25.282 8.96958C25.1954 9.17907 25.0683 9.36941 24.9081 9.5297C24.7478 9.68999 24.5574 9.81708 24.348 9.9037C24.1385 9.99031 23.914 10.0348 23.6873 10.0345V10.0345Z" fill="#FFFFFF"/>
</svg>
