<svg width="127" height="123" viewBox="0 0 127 123" fill="none" xmlns="http://www.w3.org/2000/svg">
<path fill-rule="evenodd" clip-rule="evenodd" d="M59.7919 53.9902C48.2925 45.0199 31.2625 40.0289 24.7877 39.9278C24.7877 39.9278 11.4672 40.0289 8.8031 39.4557C5.02617 39.5905 8.83684 45.8967 11.5009 46.1328C11.5009 46.1328 11.8719 50.854 18.178 52.7424C19.9991 59.6556 41.0084 57.2276 41.0084 57.2276C41.0084 57.2276 30.3182 58.8463 17.9757 64.4105C16.3233 65.8606 17.9757 67.1083 17.9757 67.1083C21.1794 70.5143 28.6321 70.5143 28.6321 70.5143C38.3516 76.3335 43.9044 71.4198 49.2877 66.6561C52.6083 63.7177 55.8645 60.8363 59.9943 60.5661C60.5002 63.2977 61.5118 64.9838 61.5118 64.9838C58.443 69.4015 61.5118 70.2108 61.5118 70.2108C58.814 74.3925 61.5118 75.7414 61.5118 75.7414C58.3082 80.2265 61.7478 81.1707 61.7478 81.1707C59.9943 85.0489 62.2537 87.5106 62.2537 87.5106L63.299 87.0206L64.412 87.5443C64.412 87.5443 67.0086 85.0489 65.255 81.1707C65.255 81.1707 68.6947 80.2265 65.4911 75.7414C65.4911 75.7414 68.1889 74.3925 65.4911 70.2108C65.4911 70.2108 68.5598 69.4015 65.4911 64.9838C65.4911 64.9838 66.5027 63.2977 67.0086 60.5661C71.1384 60.8363 74.3945 63.7177 77.7152 66.6561C83.0985 71.4198 88.6513 76.3335 98.3708 70.5143C98.3708 70.5143 105.824 70.5143 109.027 67.1083C109.027 67.1083 110.68 65.8606 109.027 64.4105C96.6846 58.8463 85.9945 57.2276 85.9945 57.2276C85.9945 57.2276 107.004 59.6556 108.825 52.7424C115.131 50.854 115.502 46.1328 115.502 46.1328C118.166 45.8967 121.977 39.5905 118.2 39.4557C115.536 40.0289 102.215 39.9278 102.215 39.9278C95.7404 40.0289 78.7104 45.0199 67.2109 53.9902C67.2109 53.9902 67.1098 52.7087 66.5365 51.3261C66.5365 51.3261 68.2147 46.5264 63.4677 44.7291L63.4677 44.7164C63.4621 44.7185 63.4565 44.7206 63.4509 44.7227C63.4453 44.7206 63.4396 44.7185 63.434 44.7164L63.434 44.7291C58.6876 46.5264 60.4664 51.3261 60.4664 51.3261C59.8931 52.7087 59.7919 53.9902 59.7919 53.9902Z" fill="#772ADB"/>
</svg>
