<svg width="65" height="65" viewBox="0 0 65 65" fill="none" xmlns="http://www.w3.org/2000/svg">
<path fill-rule="evenodd" clip-rule="evenodd" d="M30.6022 27.6328C24.7167 23.0417 16.0005 20.4873 12.6867 20.4355C12.6867 20.4355 5.86909 20.4873 4.50557 20.1938C2.57249 20.2629 4.52284 23.4904 5.88635 23.6113C5.88635 23.6113 6.07621 26.0276 9.30377 26.9942C10.2358 30.5324 20.9886 29.2897 20.9886 29.2897C20.9886 29.2897 15.5173 30.1182 9.20021 32.966C8.35449 33.7082 9.20021 34.3468 9.20021 34.3468C10.8399 36.09 14.6543 36.09 14.6543 36.09C19.6288 39.0683 22.4708 36.5535 25.226 34.1153C26.9256 32.6114 28.5921 31.1367 30.7058 30.9984C30.9647 32.3964 31.4825 33.2594 31.4825 33.2594C29.9118 35.5204 31.4825 35.9347 31.4825 35.9347C30.1017 38.0749 31.4825 38.7653 31.4825 38.7653C29.8428 41.0608 31.6033 41.5441 31.6033 41.5441C30.7058 43.5289 31.8622 44.7889 31.8622 44.7889L32.3972 44.5381L32.9668 44.8062C32.9668 44.8062 34.2957 43.5289 33.3983 41.5441C33.3983 41.5441 35.1587 41.0608 33.5191 38.7653C33.5191 38.7653 34.8998 38.0749 33.5191 35.9347C33.5191 35.9347 35.0897 35.5204 33.5191 33.2594C33.5191 33.2594 34.0368 32.3964 34.2957 30.9984C36.4094 31.1367 38.076 32.6114 39.7755 34.1153C42.5307 36.5535 45.3727 39.0683 50.3473 36.09C50.3473 36.09 54.1617 36.09 55.8013 34.3468C55.8013 34.3468 56.647 33.7082 55.8013 32.966C49.4843 30.1182 44.013 29.2897 44.013 29.2897C44.013 29.2897 54.7657 30.5324 55.6978 26.9942C58.9253 26.0276 59.1152 23.6113 59.1152 23.6113C60.4787 23.4904 62.429 20.2629 60.496 20.1938C59.1325 20.4873 52.3149 20.4355 52.3149 20.4355C49.001 20.4873 40.2849 23.0417 34.3993 27.6328C34.3993 27.6328 34.3475 26.9769 34.0541 26.2692C34.0541 26.2692 34.913 23.8127 32.4835 22.8928L32.4835 22.8863C32.4807 22.8874 32.4778 22.8885 32.4749 22.8896C32.472 22.8885 32.4691 22.8874 32.4662 22.8863L32.4662 22.8929C30.037 23.8128 30.9474 26.2692 30.9474 26.2692C30.654 26.9769 30.6022 27.6328 30.6022 27.6328Z" fill="#772ADB"/>
</svg>
