<svg width="98" height="107" viewBox="0 0 98 107" fill="none" xmlns="http://www.w3.org/2000/svg">
<path fill-rule="evenodd" clip-rule="evenodd" d="M51.7835 41.5975C60.6434 34.6862 73.7643 30.8409 78.7529 30.7629C78.7529 30.7629 89.0158 30.8409 91.0684 30.3992C93.9784 30.5031 91.0424 35.3618 88.9899 35.5436C88.9899 35.5436 88.7041 39.1811 83.8454 40.6361C82.4424 45.9625 66.2555 44.0917 66.2555 44.0917C66.2555 44.0917 74.4918 45.3389 84.0013 49.6259C85.2744 50.7432 84.0013 51.7045 84.0013 51.7045C81.533 54.3287 75.7909 54.3287 75.7909 54.3287C68.3024 58.8122 64.0242 55.0264 59.8766 51.3561C57.3182 49.0921 54.8094 46.8721 51.6276 46.664C51.2378 48.7685 50.4584 50.0676 50.4584 50.0676C52.8227 53.4713 50.4584 54.0949 50.4584 54.0949C52.5369 57.3166 50.4584 58.3559 50.4584 58.3559C52.9267 61.8116 50.2765 62.5391 50.2765 62.5391C51.6276 65.527 49.627 67.4497 49.627 67.4497L48.7695 67.0462L47.9641 67.4237C47.9641 67.4237 46.2233 65.527 47.5744 62.5391C47.5744 62.5391 44.9242 61.8116 47.3925 58.356C47.3925 58.356 45.314 57.3167 47.3925 54.0949C47.3925 54.0949 45.0282 53.4713 47.3925 50.0677C47.3925 50.0677 46.6131 48.7686 46.2233 46.664C43.0415 46.8722 40.5327 49.0922 37.9743 51.3561C33.8267 55.0264 29.5485 58.8122 22.06 54.3287C22.06 54.3287 16.3179 54.3287 13.8496 51.7045C13.8496 51.7045 12.5765 50.7432 13.8496 49.626C23.3591 45.3389 31.5954 44.0918 31.5954 44.0918C31.5954 44.0918 15.4085 45.9625 14.0055 40.6362C9.14684 39.1812 8.86104 35.5437 8.86104 35.5437C6.80845 35.3618 3.87248 30.5031 6.78246 30.3992C8.83505 30.8409 19.098 30.7629 19.098 30.7629C24.0866 30.8409 37.2075 34.6862 46.0674 41.5975C46.0674 41.5975 46.1454 40.6102 46.5871 39.5449C46.5871 39.5449 45.2165 35.847 48.8734 34.4622L48.8735 34.4524C48.8778 34.454 48.8822 34.4556 48.8865 34.4573C48.8908 34.4556 48.8952 34.454 48.8995 34.4524L48.8995 34.4621C52.5568 35.8469 51.2638 39.5449 51.2638 39.5449C51.7055 40.6101 51.7835 41.5975 51.7835 41.5975Z" fill="url(#paint0_radial)"/>
<path d="M16.1176 87.3698V89.8026C15.2053 89.2733 14.2591 89.0086 13.2793 89.0086C12.84 89.0086 12.5021 89.0987 12.2656 89.2789C12.0403 89.4591 11.9277 89.69 11.9277 89.9716C11.9277 90.2532 12.0685 90.5066 12.35 90.7318C12.6316 90.9458 13.054 91.1767 13.6171 91.4245C13.9663 91.5822 14.2535 91.723 14.4788 91.8469C14.7153 91.9595 14.98 92.1228 15.2728 92.3368C15.5769 92.5396 15.8135 92.7592 15.9824 92.9957C16.1626 93.221 16.3147 93.5026 16.4386 93.8405C16.5625 94.1784 16.6244 94.5444 16.6244 94.9386C16.6244 95.9636 16.2471 96.7971 15.4925 97.4391C14.7378 98.0698 13.7354 98.3852 12.4852 98.3852C11.1449 98.3852 10.0524 98.1486 9.20762 97.6756V95.0569C10.2326 95.8003 11.3251 96.1719 12.4852 96.1719C12.8794 96.1719 13.206 96.0706 13.4651 95.8678C13.7241 95.6538 13.8537 95.3779 13.8537 95.04C13.8537 94.9274 13.8368 94.8204 13.803 94.719C13.7692 94.6176 13.7073 94.5219 13.6171 94.4318C13.527 94.3417 13.4369 94.2685 13.3468 94.2122C13.268 94.1446 13.1441 94.0714 12.9751 93.9925C12.8175 93.9024 12.6823 93.8292 12.5697 93.7729C12.457 93.7166 12.2881 93.6377 12.0628 93.5364C11.8488 93.435 11.6743 93.3562 11.5391 93.2998C10.807 92.9619 10.2157 92.5452 9.76515 92.0496C9.32588 91.5541 9.10625 90.8952 9.10625 90.0729C9.10625 89.0931 9.46667 88.3046 10.1875 87.7077C10.9084 87.0995 11.9051 86.7954 13.1779 86.7954C14.3155 86.7954 15.2954 86.9868 16.1176 87.3698ZM24.2215 98.25V86.8629H26.8233V98.25H24.2215ZM34.7589 98.25L35.7388 86.8629H38.594L40.1821 90.9853C40.4525 91.6723 40.6834 92.3031 40.8748 92.8775C41.0663 93.4519 41.1902 93.8574 41.2465 94.0939L41.331 94.4318C41.5112 93.6884 41.9054 92.5396 42.5136 90.9853L44.1186 86.8629H46.9738L48.1565 98.25H45.5547L45.1323 93.8405L44.9127 90.5122C44.6198 91.3569 44.2144 92.4664 43.6962 93.8405L42.0912 98.1317H40.5538L38.9657 93.8405C38.7067 93.1422 38.487 92.5171 38.3068 91.9652C38.1266 91.4133 38.0084 91.0303 37.952 90.8163L37.8676 90.5122C37.8676 91.3119 37.8169 92.4213 37.7155 93.8405L37.3607 98.25H34.7589ZM55.6675 98.25L56.6474 86.8629H59.5026L61.0907 90.9853C61.361 91.6723 61.5919 92.3031 61.7834 92.8775C61.9749 93.4519 62.0988 93.8574 62.1551 94.0939L62.2395 94.4318C62.4198 93.6884 62.814 92.5396 63.4222 90.9853L65.0272 86.8629H67.8824L69.065 98.25H66.4632L66.0409 93.8405L65.8212 90.5122C65.5284 91.3569 65.1229 92.4664 64.6048 93.8405L62.9998 98.1317H61.4624L59.8743 93.8405C59.6152 93.1422 59.3956 92.5171 59.2154 91.9652C59.0352 91.4133 58.9169 91.0303 58.8606 90.8163L58.7761 90.5122C58.7761 91.3119 58.7254 92.4213 58.6241 93.8405L58.2693 98.25H55.6675ZM80.1577 93.8236H82.8947L82.7764 93.4181C82.4498 92.3143 82.1795 91.3738 81.9655 90.5967C81.7627 89.8195 81.6388 89.3183 81.5938 89.0931L81.5262 88.7552C81.4361 89.3746 81.0194 90.9289 80.276 93.4181L80.1577 93.8236ZM84.2125 98.25L83.5198 95.9185H79.5326L78.8399 98.25H76.1199L79.9212 86.8629H83.1988L87.0001 98.25H84.2125Z" fill="#772ADB"/>
<defs>
<radialGradient id="paint0_radial" cx="0" cy="0" r="1" gradientUnits="userSpaceOnUse" gradientTransform="translate(81.4494 113.669) rotate(-127.796) scale(110.021 114.659)">
<stop stop-color="#CC3DBE"/>
<stop offset="1" stop-color="#772ADB"/>
</radialGradient>
</defs>
</svg>
