<svg width="40" height="40" viewBox="0 0 40 40" fill="none" xmlns="http://www.w3.org/2000/svg">
<path d="M19.9952 13.9974C16.69 13.9974 13.9927 16.6948 13.9927 20C13.9927 23.3052 16.69 26.0026 19.9952 26.0026C23.3003 26.0026 25.9976 23.3052 25.9976 20C25.9976 16.6948 23.3003 13.9974 19.9952 13.9974ZM37.998 20C37.998 17.5143 38.0205 15.0512 37.8809 12.57C37.7413 9.68803 37.0839 7.1303 34.9765 5.02288C32.8646 2.91095 30.3114 2.25801 27.4295 2.11842C24.9439 1.97882 22.4808 2.00134 19.9997 2.00134C17.514 2.00134 15.0509 1.97882 12.5698 2.11842C9.68789 2.25801 7.13021 2.91546 5.02282 5.02288C2.91094 7.13481 2.25801 9.68803 2.11842 12.57C1.97882 15.0557 2.00134 17.5188 2.00134 20C2.00134 22.4812 1.97882 24.9488 2.11842 27.43C2.25801 30.312 2.91544 32.8697 5.02282 34.9771C7.13471 37.089 9.68789 37.742 12.5698 37.8816C15.0554 38.0212 17.5185 37.9987 19.9997 37.9987C22.4853 37.9987 24.9484 38.0212 27.4295 37.8816C30.3114 37.742 32.8691 37.0845 34.9765 34.9771C37.0884 32.8652 37.7413 30.312 37.8809 27.43C38.025 24.9488 37.998 22.4857 37.998 20V20ZM19.9952 29.2357C14.8843 29.2357 10.7596 25.111 10.7596 20C10.7596 14.889 14.8843 10.7643 19.9952 10.7643C25.106 10.7643 29.2307 14.889 29.2307 20C29.2307 25.111 25.106 29.2357 19.9952 29.2357ZM29.609 12.543C28.4157 12.543 27.4521 11.5793 27.4521 10.386C27.4521 9.1927 28.4157 8.22905 29.609 8.22905C30.8023 8.22905 31.7659 9.1927 31.7659 10.386C31.7663 10.6694 31.7107 10.95 31.6024 11.2119C31.4942 11.4737 31.3353 11.7116 31.1349 11.912C30.9346 12.1124 30.6967 12.2712 30.4348 12.3795C30.173 12.4878 29.8923 12.5433 29.609 12.543V12.543Z" fill="#828282"/>
</svg>
