<svg width="40" height="40" viewBox="0 0 40 40" fill="none" xmlns="http://www.w3.org/2000/svg">
<path d="M34.6421 4.85914C34.4676 4.68544 34.2471 4.56518 34.0066 4.51249C33.766 4.45981 33.5155 4.47689 33.2843 4.56173L4.83597 14.9066C4.59063 14.9996 4.3794 15.1651 4.23035 15.3811C4.08129 15.597 4.00146 15.8532 4.00146 16.1156C4.00146 16.378 4.08129 16.6342 4.23035 16.8502C4.3794 17.0661 4.59063 17.2316 4.83597 17.3247L15.9438 21.76L24.1421 13.5359L25.9653 15.3592L17.7282 23.5963L22.1765 34.704C22.2724 34.9446 22.4382 35.1509 22.6526 35.2962C22.8671 35.4414 23.1201 35.519 23.3791 35.5187C23.6404 35.5133 23.894 35.4289 24.1064 35.2766C24.3187 35.1242 24.48 34.9111 24.5688 34.6652L34.9136 6.2169C35.0017 5.98812 35.023 5.73901 34.9749 5.49861C34.9268 5.25822 34.8114 5.03644 34.6421 4.85914Z" fill="#772ADB"/>
</svg>
